<svg width="22" height="22" viewBox="0 0 22 22" fill="none" xmlns="http://www.w3.org/2000/svg">
<g clip-path="url(#clip0_22_1843)">
<path d="M8.3352 4.20996H10.9111L12.6284 5.92725H16.9216C17.3771 5.92725 17.8139 6.10817 18.1359 6.43023C18.458 6.75228 18.6389 7.18908 18.6389 7.64453V13.655C18.6389 14.1105 18.458 14.5473 18.1359 14.8693C17.8139 15.1914 17.3771 15.3723 16.9216 15.3723H8.3352C7.87975 15.3723 7.44295 15.1914 7.1209 14.8693C6.79885 14.5473 6.61792 14.1105 6.61792 13.655V5.92725C6.61792 5.47179 6.79885 5.03499 7.1209 4.71294C7.44295 4.39089 7.87975 4.20996 8.3352 4.20996Z" stroke="#21272A" stroke-width="1.71728" stroke-linecap="round" stroke-linejoin="round"/>
<path d="M15.2043 15.3723V17.0896C15.2043 17.545 15.0234 17.9818 14.7014 18.3039C14.3793 18.6259 13.9425 18.8069 13.4871 18.8069H4.90063C4.44518 18.8069 4.00838 18.6259 3.68633 18.3039C3.36428 17.9818 3.18335 17.545 3.18335 17.0896V9.36182C3.18335 8.90636 3.36428 8.46957 3.68633 8.14751C4.00838 7.82546 4.44518 7.64453 4.90063 7.64453H6.61792" stroke="#21272A" stroke-width="1.71728" stroke-linecap="round" stroke-linejoin="round"/>
</g>
<defs>
<clipPath id="clip0_22_1843">
<rect width="20.6074" height="20.6074" fill="white" transform="translate(0.607422 0.775391)"/>
</clipPath>
</defs>
</svg>
