<svg width="360" height="55" viewBox="0 0 360 55" fill="none" xmlns="http://www.w3.org/2000/svg">
<g clip-path="url(#clip0_9_4121)">
<path d="M8.36596 14.082L13.7783 8.66964C14.1708 8.27727 14.703 8.05685 15.258 8.05685C15.813 8.05685 16.3452 8.27727 16.7377 8.66964L28.4289 20.3608C28.8212 20.7533 29.0417 21.2855 29.0417 21.8405C29.0417 22.3955 28.8212 22.9277 28.4289 23.3202L23.0165 28.7326C22.6241 29.1249 22.0918 29.3453 21.5368 29.3453C20.9819 29.3453 20.4496 29.1249 20.0571 28.7326L8.36596 17.0414C7.97359 16.6489 7.75317 16.1167 7.75317 15.5617C7.75317 15.0067 7.97359 14.4745 8.36596 14.082V14.082Z" stroke="#697077" stroke-width="2.57593" stroke-linecap="round" stroke-linejoin="round"/>
<path d="M13.1651 21.8405L6.88623 28.1193L13.1651 34.3981L19.4439 28.1193" stroke="#697077" stroke-width="2.57593" stroke-linecap="round" stroke-linejoin="round"/>
<path d="M21.5368 13.4687L27.8157 7.18993L34.0945 13.4687L27.8157 19.7476" stroke="#697077" stroke-width="2.57593" stroke-linecap="round" stroke-linejoin="round"/>
<path d="M25.7227 26.0264L28.8621 29.1658" stroke="#697077" stroke-width="2.57593" stroke-linecap="round" stroke-linejoin="round"/>
<path d="M30.955 36.4911C32.3428 36.4911 33.6736 35.9398 34.6549 34.9586C35.6361 33.9773 36.1874 32.6464 36.1874 31.2587" stroke="#697077" stroke-width="2.57593" stroke-linecap="round" stroke-linejoin="round"/>
<path d="M32.0015 44.8628C35.332 44.8628 38.5261 43.5398 40.8811 41.1848C43.2361 38.8298 44.5592 35.6357 44.5592 32.3052" stroke="#697077" stroke-width="2.57593" stroke-linecap="round" stroke-linejoin="round"/>
</g>
<path d="M75.3696 17.4251V26.1339C75.0275 26.5465 74.4992 26.9943 73.7848 27.4772C73.0704 27.9502 72.1497 28.3577 71.0228 28.6998C69.8958 29.0419 68.5324 29.213 66.9325 29.213C65.5137 29.213 64.2207 28.9815 63.0535 28.5187C61.8863 28.0458 60.88 27.3565 60.0348 26.4509C59.1997 25.5453 58.5557 24.4385 58.1029 23.1304C57.6501 21.8122 57.4237 20.3079 57.4237 18.6175V17.244C57.4237 15.5535 57.64 14.0492 58.0727 12.7311C58.5154 11.4129 59.1443 10.3011 59.9593 9.39545C60.7744 8.48985 61.7454 7.80059 62.8724 7.32767C63.9993 6.85474 65.2521 6.61828 66.6306 6.61828C68.5424 6.61828 70.1121 6.93021 71.3397 7.55407C72.5673 8.16786 73.5031 9.02315 74.1471 10.1199C74.8011 11.2066 75.2036 12.4544 75.3545 13.8631H70.9624C70.8517 13.1185 70.6404 12.4695 70.3285 11.916C70.0165 11.3626 69.5688 10.9299 68.9852 10.618C68.4116 10.3061 67.667 10.1501 66.7513 10.1501C65.9967 10.1501 65.3225 10.3061 64.7288 10.618C64.1452 10.9199 63.6522 11.3676 63.2497 11.9613C62.8472 12.555 62.5403 13.2895 62.329 14.1649C62.1177 15.0404 62.012 16.0566 62.012 17.2138V18.6175C62.012 19.7646 62.1227 20.7808 62.3441 21.6663C62.5655 22.5417 62.8925 23.2813 63.3252 23.885C63.7679 24.4787 64.3113 24.9265 64.9552 25.2283C65.5992 25.5302 66.3489 25.6811 67.2041 25.6811C67.9186 25.6811 68.5122 25.6208 68.9852 25.5C69.4681 25.3793 69.8555 25.2334 70.1473 25.0623C70.4492 24.8812 70.6806 24.7101 70.8416 24.5491V20.6551H66.7061V17.4251H75.3696ZM86.267 29.213C84.9992 29.213 83.8621 29.0117 82.8559 28.6092C81.8497 28.1967 80.9944 27.6282 80.29 26.9037C79.5958 26.1792 79.0625 25.339 78.6902 24.3831C78.3179 23.4171 78.1317 22.3908 78.1317 21.3041V20.7003C78.1317 19.4627 78.3078 18.3307 78.66 17.3043C79.0121 16.278 79.5153 15.3875 80.1693 14.6328C80.8334 13.8782 81.6384 13.2996 82.5842 12.8971C83.5301 12.4846 84.5967 12.2783 85.784 12.2783C86.9412 12.2783 87.9675 12.4695 88.8631 12.8518C89.7586 13.2342 90.5082 13.7775 91.112 14.4819C91.7258 15.1863 92.1886 16.0315 92.5005 17.0176C92.8125 17.9936 92.9684 19.0803 92.9684 20.2777V22.0889H79.9882V19.191H88.697V18.859C88.697 18.2552 88.5863 17.7169 88.365 17.244C88.1537 16.761 87.8317 16.3786 87.399 16.0969C86.9663 15.8151 86.4129 15.6743 85.7387 15.6743C85.1652 15.6743 84.6721 15.8 84.2596 16.0516C83.847 16.3032 83.51 16.6553 83.2483 17.1081C82.9968 17.5609 82.8056 18.0942 82.6748 18.708C82.554 19.3118 82.4937 19.9759 82.4937 20.7003V21.3041C82.4937 21.9581 82.5842 22.5619 82.7654 23.1153C82.9565 23.6687 83.2232 24.1467 83.5653 24.5491C83.9175 24.9516 84.3401 25.2636 84.8331 25.4849C85.3362 25.7063 85.9048 25.817 86.5387 25.817C87.3235 25.817 88.053 25.666 88.7272 25.3642C89.4114 25.0523 90.0001 24.5844 90.4931 23.9605L92.6062 26.2547C92.2641 26.7477 91.7962 27.2207 91.2025 27.6735C90.6189 28.1263 89.9146 28.4986 89.0895 28.7904C88.2643 29.0721 87.3235 29.213 86.267 29.213ZM94.7494 20.9117V20.5947C94.7494 19.3973 94.9205 18.2955 95.2626 17.2893C95.6047 16.273 96.1028 15.3925 96.7569 14.6479C97.4109 13.9033 98.2159 13.3247 99.1718 12.9122C100.128 12.4896 101.224 12.2783 102.462 12.2783C103.7 12.2783 104.802 12.4896 105.768 12.9122C106.734 13.3247 107.544 13.9033 108.198 14.6479C108.862 15.3925 109.365 16.273 109.707 17.2893C110.049 18.2955 110.22 19.3973 110.22 20.5947V20.9117C110.22 22.099 110.049 23.2008 109.707 24.2171C109.365 25.2233 108.862 26.1038 108.198 26.8584C107.544 27.603 106.739 28.1816 105.783 28.5942C104.827 29.0067 103.73 29.213 102.492 29.213C101.255 29.213 100.153 29.0067 99.1869 28.5942C98.231 28.1816 97.421 27.603 96.7569 26.8584C96.1028 26.1038 95.6047 25.2233 95.2626 24.2171C94.9205 23.2008 94.7494 22.099 94.7494 20.9117ZM99.0963 20.5947V20.9117C99.0963 21.5959 99.1567 22.2348 99.2774 22.8285C99.3982 23.4222 99.5894 23.9454 99.851 24.3982C100.123 24.8409 100.475 25.1881 100.908 25.4396C101.34 25.6912 101.868 25.817 102.492 25.817C103.096 25.817 103.614 25.6912 104.047 25.4396C104.48 25.1881 104.827 24.8409 105.088 24.3982C105.35 23.9454 105.541 23.4222 105.662 22.8285C105.793 22.2348 105.858 21.5959 105.858 20.9117V20.5947C105.858 19.9306 105.793 19.3067 105.662 18.7231C105.541 18.1295 105.345 17.6062 105.073 17.1534C104.812 16.6906 104.465 16.3283 104.032 16.0667C103.599 15.8051 103.076 15.6743 102.462 15.6743C101.848 15.6743 101.325 15.8051 100.892 16.0667C100.47 16.3283 100.123 16.6906 99.851 17.1534C99.5894 17.6062 99.3982 18.1295 99.2774 18.7231C99.1567 19.3067 99.0963 19.9306 99.0963 20.5947ZM121.087 24.3227L126.264 6.93524H131.305L123.653 28.9111H120.333L121.087 24.3227ZM116.318 6.93524L121.48 24.3227L122.265 28.9111H118.914L111.307 6.93524H116.318ZM137.675 12.5801V28.9111H133.313V12.5801H137.675ZM133.041 8.32383C133.041 7.68991 133.263 7.16667 133.705 6.75412C134.148 6.34157 134.742 6.1353 135.486 6.1353C136.221 6.1353 136.809 6.34157 137.252 6.75412C137.705 7.16667 137.931 7.68991 137.931 8.32383C137.931 8.95775 137.705 9.48098 137.252 9.89353C136.809 10.3061 136.221 10.5124 135.486 10.5124C134.742 10.5124 134.148 10.3061 133.705 9.89353C133.263 9.48098 133.041 8.95775 133.041 8.32383ZM150.097 24.3982C150.097 24.0863 150.006 23.8045 149.825 23.553C149.644 23.3014 149.307 23.07 148.814 22.8587C148.331 22.6373 147.631 22.4361 146.716 22.255C145.891 22.0738 145.121 21.8474 144.406 21.5758C143.702 21.294 143.088 20.9569 142.565 20.5645C142.052 20.1721 141.649 19.7092 141.358 19.1759C141.066 18.6326 140.92 18.0137 140.92 17.3194C140.92 16.6352 141.066 15.9912 141.358 15.3875C141.659 14.7838 142.087 14.2505 142.641 13.7876C143.204 13.3147 143.888 12.9474 144.693 12.6858C145.508 12.4141 146.424 12.2783 147.44 12.2783C148.859 12.2783 150.077 12.5047 151.093 12.9575C152.119 13.4103 152.904 14.0341 153.447 14.829C154.001 15.6139 154.277 16.5094 154.277 17.5157H149.931C149.931 17.093 149.84 16.7157 149.659 16.3837C149.488 16.0415 149.216 15.7749 148.844 15.5837C148.482 15.3825 148.009 15.2818 147.425 15.2818C146.942 15.2818 146.525 15.3674 146.172 15.5384C145.82 15.6994 145.549 15.9208 145.357 16.2025C145.176 16.4742 145.086 16.7761 145.086 17.1081C145.086 17.3597 145.136 17.5861 145.237 17.7873C145.347 17.9785 145.523 18.1546 145.765 18.3156C146.006 18.4766 146.318 18.6275 146.701 18.7684C147.093 18.8992 147.576 19.02 148.15 19.1306C149.327 19.3721 150.378 19.6891 151.304 20.0815C152.23 20.4639 152.964 20.9871 153.508 21.6512C154.051 22.3053 154.323 23.1656 154.323 24.2322C154.323 24.9567 154.162 25.6208 153.84 26.2245C153.518 26.8282 153.055 27.3565 152.451 27.8093C151.847 28.252 151.123 28.5992 150.278 28.8507C149.443 29.0922 148.502 29.213 147.455 29.213C145.936 29.213 144.648 28.9413 143.591 28.3979C142.545 27.8546 141.75 27.1653 141.207 26.3302C140.673 25.4849 140.407 24.6196 140.407 23.7341H144.527C144.547 24.3278 144.698 24.8057 144.98 25.168C145.272 25.5302 145.639 25.7918 146.082 25.9528C146.535 26.1138 147.023 26.1943 147.546 26.1943C148.109 26.1943 148.577 26.1188 148.95 25.9679C149.322 25.8069 149.604 25.5956 149.795 25.334C149.996 25.0623 150.097 24.7504 150.097 24.3982ZM161.734 12.5801V28.9111H157.372V12.5801H161.734ZM157.1 8.32383C157.1 7.68991 157.321 7.16667 157.764 6.75412C158.207 6.34157 158.8 6.1353 159.545 6.1353C160.28 6.1353 160.868 6.34157 161.311 6.75412C161.764 7.16667 161.99 7.68991 161.99 8.32383C161.99 8.95775 161.764 9.48098 161.311 9.89353C160.868 10.3061 160.28 10.5124 159.545 10.5124C158.8 10.5124 158.207 10.3061 157.764 9.89353C157.321 9.48098 157.1 8.95775 157.1 8.32383ZM164.631 20.9117V20.5947C164.631 19.3973 164.803 18.2955 165.145 17.2893C165.487 16.273 165.985 15.3925 166.639 14.6479C167.293 13.9033 168.098 13.3247 169.054 12.9122C170.01 12.4896 171.107 12.2783 172.344 12.2783C173.582 12.2783 174.684 12.4896 175.65 12.9122C176.616 13.3247 177.426 13.9033 178.08 14.6479C178.744 15.3925 179.247 16.273 179.589 17.2893C179.931 18.2955 180.102 19.3973 180.102 20.5947V20.9117C180.102 22.099 179.931 23.2008 179.589 24.2171C179.247 25.2233 178.744 26.1038 178.08 26.8584C177.426 27.603 176.621 28.1816 175.665 28.5942C174.709 29.0067 173.612 29.213 172.374 29.213C171.137 29.213 170.035 29.0067 169.069 28.5942C168.113 28.1816 167.303 27.603 166.639 26.8584C165.985 26.1038 165.487 25.2233 165.145 24.2171C164.803 23.2008 164.631 22.099 164.631 20.9117ZM168.978 20.5947V20.9117C168.978 21.5959 169.039 22.2348 169.159 22.8285C169.28 23.4222 169.471 23.9454 169.733 24.3982C170.005 24.8409 170.357 25.1881 170.79 25.4396C171.222 25.6912 171.751 25.817 172.374 25.817C172.978 25.817 173.496 25.6912 173.929 25.4396C174.362 25.1881 174.709 24.8409 174.97 24.3982C175.232 23.9454 175.423 23.4222 175.544 22.8285C175.675 22.2348 175.74 21.5959 175.74 20.9117V20.5947C175.74 19.9306 175.675 19.3067 175.544 18.7231C175.423 18.1295 175.227 17.6062 174.955 17.1534C174.694 16.6906 174.347 16.3283 173.914 16.0667C173.481 15.8051 172.958 15.6743 172.344 15.6743C171.73 15.6743 171.207 15.8051 170.774 16.0667C170.352 16.3283 170.005 16.6906 169.733 17.1534C169.471 17.6062 169.28 18.1295 169.159 18.7231C169.039 19.3067 168.978 19.9306 168.978 20.5947ZM187.03 16.0667V28.9111H182.683V12.5801H186.758L187.03 16.0667ZM186.396 20.1721H185.219C185.219 18.9646 185.375 17.8779 185.687 16.9119C185.999 15.9359 186.436 15.1058 187 14.4215C187.563 13.7272 188.232 13.199 189.007 12.8367C189.792 12.4644 190.667 12.2783 191.633 12.2783C192.398 12.2783 193.097 12.389 193.731 12.6103C194.365 12.8317 194.909 13.1839 195.361 13.6669C195.824 14.1498 196.177 14.7888 196.418 15.5837C196.67 16.3786 196.795 17.3496 196.795 18.4967V28.9111H192.418V18.4816C192.418 17.7571 192.318 17.1937 192.116 16.7912C191.915 16.3887 191.618 16.1069 191.226 15.946C190.844 15.7749 190.371 15.6894 189.807 15.6894C189.224 15.6894 188.715 15.8051 188.283 16.0365C187.86 16.2679 187.508 16.5899 187.226 17.0025C186.955 17.405 186.748 17.8779 186.607 18.4213C186.466 18.9646 186.396 19.5482 186.396 20.1721ZM220.809 21.621H225.322C225.231 23.1002 224.824 24.4133 224.099 25.5604C223.385 26.7075 222.384 27.603 221.096 28.247C219.818 28.891 218.278 29.213 216.477 29.213C215.068 29.213 213.806 28.9715 212.689 28.4885C211.572 27.9954 210.616 27.2911 209.821 26.3754C209.036 25.4598 208.437 24.3529 208.025 23.0549C207.612 21.7569 207.406 20.3029 207.406 18.6929V17.1685C207.406 15.5586 207.617 14.1046 208.04 12.8065C208.473 11.4985 209.086 10.3866 209.881 9.47092C210.686 8.55526 211.647 7.8509 212.764 7.35785C213.881 6.86481 215.129 6.61828 216.507 6.61828C218.339 6.61828 219.883 6.95033 221.141 7.61444C222.409 8.27855 223.39 9.19421 224.084 10.3614C224.788 11.5286 225.211 12.8569 225.352 14.3461H220.824C220.774 13.4606 220.598 12.711 220.296 12.0972C219.994 11.4733 219.536 11.0054 218.922 10.6935C218.318 10.3715 217.513 10.2105 216.507 10.2105C215.753 10.2105 215.093 10.3514 214.53 10.6331C213.967 10.9148 213.494 11.3425 213.111 11.916C212.729 12.4896 212.442 13.2141 212.251 14.0895C212.07 14.9548 211.979 15.9711 211.979 17.1383V18.6929C211.979 19.83 212.065 20.8312 212.236 21.6965C212.407 22.5518 212.669 23.2763 213.021 23.8699C213.383 24.4536 213.846 24.8963 214.409 25.1982C214.983 25.49 215.672 25.6359 216.477 25.6359C217.423 25.6359 218.203 25.4849 218.817 25.1831C219.43 24.8812 219.898 24.4334 220.22 23.8398C220.552 23.2461 220.748 22.5065 220.809 21.621ZM232.265 5.72778V28.9111H227.918V5.72778H232.265ZM231.646 20.1721H230.453C230.464 19.035 230.614 17.9886 230.906 17.0327C231.198 16.0667 231.616 15.2315 232.159 14.5272C232.702 13.8128 233.351 13.2593 234.106 12.8669C234.871 12.4745 235.716 12.2783 236.642 12.2783C237.447 12.2783 238.176 12.394 238.83 12.6254C239.494 12.8468 240.063 13.209 240.536 13.7121C241.019 14.2052 241.391 14.8542 241.653 15.6592C241.914 16.4642 242.045 17.4402 242.045 18.5873V28.9111H237.668V18.5571C237.668 17.8326 237.562 17.2641 237.351 16.8516C237.15 16.4289 236.853 16.1321 236.461 15.961C236.078 15.7799 235.605 15.6894 235.042 15.6894C234.418 15.6894 233.885 15.8051 233.442 16.0365C233.009 16.2679 232.662 16.5899 232.4 17.0025C232.139 17.405 231.948 17.8779 231.827 18.4213C231.706 18.9646 231.646 19.5482 231.646 20.1721ZM254.165 25.2283V17.9534C254.165 17.4301 254.08 16.9824 253.908 16.6101C253.737 16.2277 253.471 15.9309 253.109 15.7196C252.756 15.5082 252.299 15.4026 251.735 15.4026C251.252 15.4026 250.834 15.4881 250.482 15.6592C250.13 15.8202 249.858 16.0566 249.667 16.3686C249.476 16.6704 249.38 17.0276 249.38 17.4402H245.034C245.034 16.7459 245.195 16.0868 245.517 15.463C245.839 14.8391 246.306 14.2907 246.92 13.8178C247.534 13.3348 248.264 12.9575 249.109 12.6858C249.964 12.4141 250.92 12.2783 251.977 12.2783C253.244 12.2783 254.371 12.4896 255.357 12.9122C256.344 13.3348 257.118 13.9687 257.682 14.814C258.255 15.6592 258.542 16.7157 258.542 17.9835V24.9718C258.542 25.8673 258.597 26.6018 258.708 27.1754C258.819 27.7389 258.98 28.2319 259.191 28.6545V28.9111H254.799C254.588 28.4684 254.427 27.915 254.316 27.2508C254.215 26.5767 254.165 25.9025 254.165 25.2283ZM254.739 18.9646L254.769 21.4248H252.339C251.765 21.4248 251.267 21.4902 250.845 21.621C250.422 21.7518 250.075 21.938 249.803 22.1795C249.531 22.4109 249.33 22.6826 249.199 22.9945C249.079 23.3065 249.018 23.6486 249.018 24.0209C249.018 24.3932 249.104 24.7303 249.275 25.0321C249.446 25.3239 249.692 25.5554 250.014 25.7264C250.336 25.8874 250.714 25.9679 251.146 25.9679C251.8 25.9679 252.369 25.8371 252.852 25.5755C253.335 25.3139 253.707 24.9919 253.969 24.6095C254.241 24.2272 254.381 23.8649 254.391 23.5228L255.539 25.3642C255.378 25.7767 255.156 26.2044 254.874 26.6471C254.603 27.0898 254.256 27.5074 253.833 27.8999C253.41 28.2822 252.902 28.5992 252.309 28.8507C251.715 29.0922 251.011 29.213 250.196 29.213C249.159 29.213 248.218 29.0067 247.373 28.5942C246.538 28.1715 245.874 27.593 245.381 26.8584C244.898 26.1138 244.656 25.2686 244.656 24.3227C244.656 23.4675 244.817 22.7078 245.139 22.0437C245.461 21.3795 245.934 20.8211 246.558 20.3683C247.192 19.9054 247.982 19.5583 248.928 19.3269C249.874 19.0854 250.97 18.9646 252.218 18.9646H254.739ZM266.481 5.72778V28.9111H262.119V5.72778H266.481ZM274.662 5.72778V28.9111H270.3V5.72778H274.662ZM285.77 29.213C284.503 29.213 283.366 29.0117 282.359 28.6092C281.353 28.1967 280.498 27.6282 279.794 26.9037C279.099 26.1792 278.566 25.339 278.194 24.3831C277.821 23.4171 277.635 22.3908 277.635 21.3041V20.7003C277.635 19.4627 277.811 18.3307 278.163 17.3043C278.516 16.278 279.019 15.3875 279.673 14.6328C280.337 13.8782 281.142 13.2996 282.088 12.8971C283.034 12.4846 284.1 12.2783 285.287 12.2783C286.445 12.2783 287.471 12.4695 288.367 12.8518C289.262 13.2342 290.012 13.7775 290.615 14.4819C291.229 15.1863 291.692 16.0315 292.004 17.0176C292.316 17.9936 292.472 19.0803 292.472 20.2777V22.0889H279.492V19.191H288.2V18.859C288.2 18.2552 288.09 17.7169 287.868 17.244C287.657 16.761 287.335 16.3786 286.902 16.0969C286.47 15.8151 285.916 15.6743 285.242 15.6743C284.669 15.6743 284.176 15.8 283.763 16.0516C283.35 16.3032 283.013 16.6553 282.752 17.1081C282.5 17.5609 282.309 18.0942 282.178 18.708C282.058 19.3118 281.997 19.9759 281.997 20.7003V21.3041C281.997 21.9581 282.088 22.5619 282.269 23.1153C282.46 23.6687 282.727 24.1467 283.069 24.5491C283.421 24.9516 283.844 25.2636 284.337 25.4849C284.84 25.7063 285.408 25.817 286.042 25.817C286.827 25.817 287.557 25.666 288.231 25.3642C288.915 25.0523 289.504 24.5844 289.997 23.9605L292.11 26.2547C291.768 26.7477 291.3 27.2207 290.706 27.6735C290.122 28.1263 289.418 28.4986 288.593 28.7904C287.768 29.0721 286.827 29.213 285.77 29.213ZM299.204 16.0667V28.9111H294.857V12.5801H298.932L299.204 16.0667ZM298.57 20.1721H297.392C297.392 18.9646 297.548 17.8779 297.86 16.9119C298.172 15.9359 298.61 15.1058 299.173 14.4215C299.737 13.7272 300.406 13.199 301.181 12.8367C301.966 12.4644 302.841 12.2783 303.807 12.2783C304.572 12.2783 305.271 12.389 305.905 12.6103C306.539 12.8317 307.082 13.1839 307.535 13.6669C307.998 14.1498 308.35 14.7888 308.592 15.5837C308.843 16.3786 308.969 17.3496 308.969 18.4967V28.9111H304.592V18.4816C304.592 17.7571 304.491 17.1937 304.29 16.7912C304.089 16.3887 303.792 16.1069 303.399 15.946C303.017 15.7749 302.544 15.6894 301.981 15.6894C301.397 15.6894 300.889 15.8051 300.456 16.0365C300.034 16.2679 299.681 16.5899 299.4 17.0025C299.128 17.405 298.922 17.8779 298.781 18.4213C298.64 18.9646 298.57 19.5482 298.57 20.1721ZM322.613 12.5801H326.553V28.3678C326.553 29.857 326.221 31.1198 325.556 32.1562C324.902 33.2026 323.987 33.9925 322.809 34.5258C321.632 35.0692 320.264 35.3409 318.704 35.3409C318.02 35.3409 317.295 35.2503 316.531 35.0692C315.776 34.8881 315.051 34.6063 314.357 34.224C313.673 33.8416 313.099 33.3586 312.637 32.775L314.553 30.2091C315.057 30.7927 315.64 31.2455 316.304 31.5675C316.968 31.8996 317.703 32.0656 318.508 32.0656C319.293 32.0656 319.957 31.9197 320.5 31.6279C321.044 31.3462 321.461 30.9286 321.753 30.3752C322.045 29.8318 322.191 29.1727 322.191 28.3979V16.3535L322.613 12.5801ZM311.625 20.9418V20.6249C311.625 19.3772 311.776 18.2452 312.078 17.2289C312.39 16.2025 312.828 15.3221 313.391 14.5876C313.965 13.853 314.659 13.2845 315.474 12.882C316.289 12.4795 317.21 12.2783 318.236 12.2783C319.323 12.2783 320.234 12.4795 320.968 12.882C321.703 13.2845 322.306 13.858 322.779 14.6026C323.252 15.3372 323.619 16.2076 323.881 17.2138C324.153 18.2099 324.364 19.3017 324.515 20.489V21.1833C324.364 22.3204 324.138 23.3769 323.836 24.3529C323.534 25.329 323.136 26.1843 322.643 26.9188C322.15 27.6433 321.537 28.2068 320.802 28.6092C320.078 29.0117 319.212 29.213 318.206 29.213C317.2 29.213 316.289 29.0067 315.474 28.5942C314.669 28.1816 313.98 27.603 313.406 26.8584C312.833 26.1138 312.39 25.2384 312.078 24.2322C311.776 23.226 311.625 22.1292 311.625 20.9418ZM315.972 20.6249V20.9418C315.972 21.616 316.038 22.2449 316.168 22.8285C316.299 23.4121 316.5 23.9303 316.772 24.3831C317.054 24.8259 317.401 25.173 317.814 25.4246C318.236 25.666 318.734 25.7868 319.308 25.7868C320.103 25.7868 320.752 25.6208 321.255 25.2887C321.758 24.9466 322.135 24.4787 322.387 23.885C322.638 23.2914 322.784 22.6071 322.825 21.8323V19.8551C322.804 19.2212 322.719 18.6527 322.568 18.1496C322.417 17.6364 322.206 17.1987 321.934 16.8365C321.662 16.4742 321.31 16.1925 320.878 15.9912C320.445 15.79 319.932 15.6894 319.338 15.6894C318.764 15.6894 318.266 15.8202 317.844 16.0818C317.431 16.3333 317.084 16.6805 316.802 17.1232C316.531 17.566 316.324 18.0892 316.183 18.6929C316.043 19.2866 315.972 19.9306 315.972 20.6249ZM337.45 29.213C336.182 29.213 335.045 29.0117 334.039 28.6092C333.033 28.1967 332.177 27.6282 331.473 26.9037C330.779 26.1792 330.245 25.339 329.873 24.3831C329.501 23.4171 329.315 22.3908 329.315 21.3041V20.7003C329.315 19.4627 329.491 18.3307 329.843 17.3043C330.195 16.278 330.698 15.3875 331.352 14.6328C332.016 13.8782 332.821 13.2996 333.767 12.8971C334.713 12.4846 335.78 12.2783 336.967 12.2783C338.124 12.2783 339.15 12.4695 340.046 12.8518C340.942 13.2342 341.691 13.7775 342.295 14.4819C342.909 15.1863 343.372 16.0315 343.684 17.0176C343.995 17.9936 344.151 19.0803 344.151 20.2777V22.0889H331.171V19.191H339.88V18.859C339.88 18.2552 339.769 17.7169 339.548 17.244C339.337 16.761 339.015 16.3786 338.582 16.0969C338.149 15.8151 337.596 15.6743 336.922 15.6743C336.348 15.6743 335.855 15.8 335.443 16.0516C335.03 16.3032 334.693 16.6553 334.431 17.1081C334.18 17.5609 333.989 18.0942 333.858 18.708C333.737 19.3118 333.677 19.9759 333.677 20.7003V21.3041C333.677 21.9581 333.767 22.5619 333.948 23.1153C334.139 23.6687 334.406 24.1467 334.748 24.5491C335.1 24.9516 335.523 25.2636 336.016 25.4849C336.519 25.7063 337.088 25.817 337.722 25.817C338.506 25.817 339.236 25.666 339.91 25.3642C340.594 25.0523 341.183 24.5844 341.676 23.9605L343.789 26.2547C343.447 26.7477 342.979 27.2207 342.385 27.6735C341.802 28.1263 341.098 28.4986 340.272 28.7904C339.447 29.0721 338.506 29.213 337.45 29.213Z" fill="#697077"/>
<path d="M172.217 44.6828H173.907C173.819 45.4928 173.587 46.2177 173.212 46.8575C172.836 47.4973 172.305 48.005 171.618 48.3807C170.931 48.7505 170.074 48.9354 169.047 48.9354C168.296 48.9354 167.612 48.7945 166.996 48.5127C166.385 48.231 165.86 47.8319 165.42 47.3153C164.98 46.7929 164.639 46.1678 164.399 45.44C164.164 44.7063 164.046 43.8904 164.046 42.9924V41.7157C164.046 40.8177 164.164 40.0047 164.399 39.2769C164.639 38.5432 164.983 37.9151 165.429 37.3927C165.881 36.8703 166.424 36.4683 167.057 36.1865C167.691 35.9048 168.405 35.7639 169.197 35.7639C170.165 35.7639 170.984 35.9459 171.653 36.3098C172.323 36.6737 172.842 37.1785 173.212 37.8242C173.587 38.4639 173.819 39.2065 173.907 40.0517H172.217C172.135 39.453 171.982 38.9394 171.759 38.5109C171.536 38.0765 171.219 37.742 170.808 37.5072C170.397 37.2724 169.86 37.155 169.197 37.155C168.628 37.155 168.126 37.2636 167.691 37.4808C167.263 37.698 166.902 38.0061 166.608 38.4052C166.321 38.8044 166.104 39.2828 165.957 39.8404C165.81 40.398 165.737 41.0172 165.737 41.6981V42.9924C165.737 43.6204 165.801 44.2103 165.93 44.762C166.065 45.3138 166.268 45.798 166.538 46.2148C166.808 46.6315 167.151 46.9602 167.568 47.2009C167.985 47.4357 168.478 47.5531 169.047 47.5531C169.769 47.5531 170.344 47.4386 170.773 47.2097C171.201 46.9808 171.524 46.6521 171.741 46.2236C171.964 45.7951 172.123 45.2815 172.217 44.6828ZM180.361 46.8135L184.138 35.94H185.978L181.233 48.7593H179.921L180.361 46.8135ZM176.83 35.94L180.572 46.8135L181.039 48.7593H179.727L174.99 35.94H176.83ZM199.916 44.6828H201.606C201.518 45.4928 201.286 46.2177 200.911 46.8575C200.535 47.4973 200.004 48.005 199.317 48.3807C198.63 48.7505 197.773 48.9354 196.746 48.9354C195.995 48.9354 195.311 48.7945 194.695 48.5127C194.084 48.231 193.559 47.8319 193.119 47.3153C192.678 46.7929 192.338 46.1678 192.097 45.44C191.862 44.7063 191.745 43.8904 191.745 42.9924V41.7157C191.745 40.8177 191.862 40.0047 192.097 39.2769C192.338 38.5432 192.681 37.9151 193.127 37.3927C193.579 36.8703 194.122 36.4683 194.756 36.1865C195.39 35.9048 196.103 35.7639 196.896 35.7639C197.864 35.7639 198.683 35.9459 199.352 36.3098C200.021 36.6737 200.541 37.1785 200.911 37.8242C201.286 38.4639 201.518 39.2065 201.606 40.0517H199.916C199.833 39.453 199.681 38.9394 199.458 38.5109C199.235 38.0765 198.918 37.742 198.507 37.5072C198.096 37.2724 197.559 37.155 196.896 37.155C196.326 37.155 195.824 37.2636 195.39 37.4808C194.962 37.698 194.601 38.0061 194.307 38.4052C194.02 38.8044 193.802 39.2828 193.656 39.8404C193.509 40.398 193.436 41.0172 193.436 41.6981V42.9924C193.436 43.6204 193.5 44.2103 193.629 44.762C193.764 45.3138 193.967 45.798 194.237 46.2148C194.507 46.6315 194.85 46.9602 195.267 47.2009C195.684 47.4357 196.177 47.5531 196.746 47.5531C197.468 47.5531 198.043 47.4386 198.472 47.2097C198.9 46.9808 199.223 46.6521 199.44 46.2236C199.663 45.7951 199.822 45.2815 199.916 44.6828ZM205.304 35.2357V48.7593H203.675V35.2357H205.304ZM204.917 43.6351L204.239 43.6087C204.244 42.9571 204.341 42.3555 204.529 41.8038C204.717 41.2461 204.981 40.7619 205.322 40.351C205.662 39.9402 206.067 39.6232 206.537 39.4001C207.012 39.1712 207.537 39.0568 208.113 39.0568C208.582 39.0568 209.005 39.1213 209.38 39.2505C209.756 39.3737 210.076 39.5733 210.34 39.8492C210.61 40.125 210.815 40.4831 210.956 40.9233C211.097 41.3577 211.168 41.8889 211.168 42.5169V48.7593H209.53V42.4993C209.53 42.0004 209.457 41.6013 209.31 41.3019C209.163 40.9967 208.949 40.7766 208.667 40.6416C208.385 40.5007 208.039 40.4303 207.628 40.4303C207.223 40.4303 206.854 40.5154 206.519 40.6856C206.19 40.8558 205.906 41.0906 205.665 41.39C205.43 41.6893 205.245 42.0327 205.11 42.4201C204.981 42.8016 204.917 43.2066 204.917 43.6351ZM219.224 47.1304V42.2264C219.224 41.8507 219.147 41.525 218.995 41.2491C218.848 40.9673 218.625 40.7502 218.326 40.5976C218.026 40.4449 217.657 40.3686 217.216 40.3686C216.805 40.3686 216.444 40.4391 216.133 40.5799C215.828 40.7208 215.588 40.9057 215.411 41.1346C215.241 41.3635 215.156 41.6101 215.156 41.8742H213.527C213.527 41.5338 213.615 41.1963 213.791 40.8617C213.967 40.5271 214.22 40.2248 214.549 39.9548C214.883 39.679 215.282 39.4618 215.746 39.3033C216.216 39.1389 216.738 39.0568 217.313 39.0568C218.006 39.0568 218.616 39.1742 219.144 39.409C219.679 39.6437 220.095 39.9988 220.395 40.4743C220.7 40.9439 220.853 41.5338 220.853 42.244V46.6814C220.853 46.9984 220.879 47.3359 220.932 47.6939C220.99 48.052 221.076 48.3601 221.187 48.6184V48.7593H219.488C219.406 48.5714 219.341 48.322 219.294 48.0109C219.247 47.6939 219.224 47.4004 219.224 47.1304ZM219.505 42.9836L219.523 44.1281H217.877C217.413 44.1281 216.999 44.1663 216.635 44.2426C216.271 44.313 215.966 44.4216 215.72 44.5684C215.473 44.7151 215.285 44.9 215.156 45.123C215.027 45.3402 214.962 45.5955 214.962 45.889C214.962 46.1884 215.03 46.4613 215.165 46.7078C215.3 46.9544 215.502 47.151 215.772 47.2977C216.048 47.4386 216.386 47.509 216.785 47.509C217.284 47.509 217.724 47.4034 218.106 47.1921C218.487 46.9808 218.789 46.7225 219.012 46.4173C219.241 46.1121 219.365 45.8156 219.382 45.528L220.078 46.3116C220.037 46.5582 219.925 46.8311 219.743 47.1304C219.561 47.4298 219.318 47.7174 219.012 47.9933C218.713 48.2633 218.355 48.4893 217.938 48.6712C217.527 48.8473 217.064 48.9354 216.547 48.9354C215.902 48.9354 215.335 48.8092 214.848 48.5568C214.367 48.3044 213.991 47.9669 213.721 47.5443C213.457 47.1158 213.325 46.6374 213.325 46.1091C213.325 45.5985 213.425 45.1494 213.624 44.762C213.824 44.3688 214.111 44.043 214.487 43.7848C214.863 43.5206 215.315 43.3211 215.843 43.1861C216.371 43.0511 216.961 42.9836 217.613 42.9836H219.505ZM225.184 35.2357V48.7593H223.547V35.2357H225.184ZM229.569 35.2357V48.7593H227.931V35.2357H229.569ZM236.137 48.9354C235.474 48.9354 234.872 48.8238 234.332 48.6008C233.798 48.3719 233.337 48.052 232.95 47.6411C232.568 47.2302 232.275 46.743 232.069 46.1796C231.864 45.6161 231.761 44.9998 231.761 44.3306V43.9608C231.761 43.1861 231.876 42.4964 232.105 41.8918C232.334 41.2814 232.645 40.7648 233.038 40.3422C233.431 39.9196 233.877 39.5997 234.376 39.3825C234.875 39.1654 235.392 39.0568 235.926 39.0568C236.607 39.0568 237.194 39.1742 237.687 39.409C238.186 39.6437 238.593 39.9724 238.91 40.395C239.227 40.8118 239.462 41.3048 239.615 41.8742C239.767 42.4377 239.844 43.054 239.844 43.7231V44.4539H232.73V43.1244H238.215V43.0012C238.191 42.5785 238.103 42.1677 237.951 41.7685C237.804 41.3694 237.569 41.0407 237.246 40.7824C236.924 40.5242 236.483 40.395 235.926 40.395C235.556 40.395 235.216 40.4743 234.904 40.6328C234.593 40.7854 234.326 41.0143 234.103 41.3195C233.88 41.6247 233.707 41.9975 233.584 42.4377C233.461 42.8779 233.399 43.3856 233.399 43.9608V44.3306C233.399 44.7826 233.461 45.2081 233.584 45.6073C233.713 46.0005 233.898 46.3468 234.138 46.6462C234.385 46.9455 234.681 47.1803 235.028 47.3506C235.38 47.5208 235.779 47.6059 236.225 47.6059C236.8 47.6059 237.287 47.4885 237.687 47.2537C238.086 47.0189 238.435 46.7049 238.734 46.3116L239.72 47.0952C239.515 47.4063 239.254 47.7027 238.937 47.9845C238.62 48.2662 238.23 48.4951 237.766 48.6712C237.308 48.8473 236.765 48.9354 236.137 48.9354ZM243.374 41.2667V48.7593H241.745V39.2329H243.286L243.374 41.2667ZM242.987 43.6351L242.309 43.6087C242.315 42.9571 242.412 42.3555 242.6 41.8038C242.787 41.2461 243.051 40.7619 243.392 40.351C243.732 39.9402 244.137 39.6232 244.607 39.4001C245.082 39.1712 245.608 39.0568 246.183 39.0568C246.652 39.0568 247.075 39.1213 247.451 39.2505C247.826 39.3737 248.146 39.5733 248.41 39.8492C248.68 40.125 248.886 40.4831 249.027 40.9233C249.168 41.3577 249.238 41.8889 249.238 42.5169V48.7593H247.6V42.4993C247.6 42.0004 247.527 41.6013 247.38 41.3019C247.234 40.9967 247.019 40.7766 246.738 40.6416C246.456 40.5007 246.11 40.4303 245.699 40.4303C245.294 40.4303 244.924 40.5154 244.589 40.6856C244.261 40.8558 243.976 41.0906 243.735 41.39C243.5 41.6893 243.316 42.0327 243.181 42.4201C243.051 42.8016 242.987 43.2066 242.987 43.6351ZM257.884 39.2329H259.363V48.5568C259.363 49.3961 259.193 50.1122 258.852 50.705C258.512 51.2979 258.037 51.7469 257.426 52.0521C256.822 52.3632 256.123 52.5188 255.331 52.5188C255.002 52.5188 254.615 52.4659 254.169 52.3603C253.728 52.2605 253.294 52.0873 252.865 51.8408C252.443 51.6002 252.088 51.2744 251.8 50.8635L252.654 49.895C253.053 50.3763 253.47 50.7109 253.904 50.8987C254.345 51.0866 254.779 51.1805 255.207 51.1805C255.724 51.1805 256.17 51.0836 256.546 50.8899C256.921 50.6962 257.212 50.4086 257.417 50.0271C257.629 49.6514 257.734 49.1877 257.734 48.636V41.3283L257.884 39.2329ZM251.325 44.1017V43.9168C251.325 43.189 251.41 42.5287 251.58 41.9358C251.756 41.3371 252.006 40.8235 252.328 40.395C252.657 39.9666 253.053 39.6379 253.517 39.409C253.981 39.1742 254.503 39.0568 255.084 39.0568C255.683 39.0568 256.205 39.1624 256.651 39.3737C257.103 39.5792 257.485 39.8815 257.796 40.2806C258.113 40.6739 258.362 41.1493 258.544 41.7069C258.726 42.2645 258.852 42.8955 258.923 43.5999V44.4099C258.858 45.1084 258.732 45.7364 258.544 46.294C258.362 46.8516 258.113 47.3271 257.796 47.7203C257.485 48.1136 257.103 48.4159 256.651 48.6272C256.199 48.8326 255.671 48.9354 255.067 48.9354C254.497 48.9354 253.981 48.815 253.517 48.5744C253.059 48.3337 252.666 47.9962 252.337 47.5619C252.009 47.1275 251.756 46.6168 251.58 46.0299C251.41 45.4371 251.325 44.7943 251.325 44.1017ZM252.954 43.9168V44.1017C252.954 44.5772 253 45.0232 253.094 45.44C253.194 45.8567 253.344 46.2236 253.543 46.5405C253.749 46.8575 254.01 47.107 254.327 47.2889C254.644 47.465 255.023 47.5531 255.463 47.5531C256.003 47.5531 256.449 47.4386 256.801 47.2097C257.153 46.9808 257.432 46.6785 257.637 46.3028C257.849 45.9272 258.013 45.5192 258.131 45.079V42.9571C258.066 42.6343 257.966 42.3232 257.831 42.0239C257.702 41.7186 257.532 41.4486 257.321 41.2139C257.115 40.9732 256.86 40.7824 256.555 40.6416C256.249 40.5007 255.891 40.4303 255.48 40.4303C255.034 40.4303 254.65 40.5242 254.327 40.712C254.01 40.894 253.749 41.1464 253.543 41.4692C253.344 41.7861 253.194 42.1559 253.094 42.5785C253 42.9953 252.954 43.4414 252.954 43.9168ZM265.79 48.9354C265.127 48.9354 264.525 48.8238 263.985 48.6008C263.451 48.3719 262.991 48.052 262.603 47.6411C262.222 47.2302 261.928 46.743 261.723 46.1796C261.517 45.6161 261.415 44.9998 261.415 44.3306V43.9608C261.415 43.1861 261.529 42.4964 261.758 41.8918C261.987 41.2814 262.298 40.7648 262.691 40.3422C263.084 39.9196 263.531 39.5997 264.03 39.3825C264.528 39.1654 265.045 39.0568 265.579 39.0568C266.26 39.0568 266.847 39.1742 267.34 39.409C267.839 39.6437 268.247 39.9724 268.564 40.395C268.881 40.8118 269.116 41.3048 269.268 41.8742C269.421 42.4377 269.497 43.054 269.497 43.7231V44.4539H262.383V43.1244H267.868V43.0012C267.845 42.5785 267.757 42.1677 267.604 41.7685C267.457 41.3694 267.223 41.0407 266.9 40.7824C266.577 40.5242 266.137 40.395 265.579 40.395C265.209 40.395 264.869 40.4743 264.558 40.6328C264.247 40.7854 263.98 41.0143 263.757 41.3195C263.534 41.6247 263.36 41.9975 263.237 42.4377C263.114 42.8779 263.052 43.3856 263.052 43.9608V44.3306C263.052 44.7826 263.114 45.2081 263.237 45.6073C263.366 46.0005 263.551 46.3468 263.792 46.6462C264.038 46.9455 264.335 47.1803 264.681 47.3506C265.033 47.5208 265.432 47.6059 265.878 47.6059C266.454 47.6059 266.941 47.4885 267.34 47.2537C267.739 47.0189 268.088 46.7049 268.388 46.3116L269.374 47.0952C269.168 47.4063 268.907 47.7027 268.59 47.9845C268.273 48.2662 267.883 48.4951 267.419 48.6712C266.961 48.8473 266.418 48.9354 265.79 48.9354ZM280.503 35.94V48.7593H278.83V35.94H280.503ZM284.623 35.94V37.3311H274.718V35.94H284.623ZM289.351 48.9354C288.688 48.9354 288.086 48.8238 287.546 48.6008C287.012 48.3719 286.551 48.052 286.164 47.6411C285.782 47.2302 285.489 46.743 285.283 46.1796C285.078 45.6161 284.975 44.9998 284.975 44.3306V43.9608C284.975 43.1861 285.09 42.4964 285.319 41.8918C285.548 41.2814 285.859 40.7648 286.252 40.3422C286.645 39.9196 287.091 39.5997 287.59 39.3825C288.089 39.1654 288.606 39.0568 289.14 39.0568C289.821 39.0568 290.408 39.1742 290.901 39.409C291.4 39.6437 291.807 39.9724 292.124 40.395C292.441 40.8118 292.676 41.3048 292.829 41.8742C292.981 42.4377 293.058 43.054 293.058 43.7231V44.4539H285.944V43.1244H291.429V43.0012C291.405 42.5785 291.317 42.1677 291.165 41.7685C291.018 41.3694 290.783 41.0407 290.46 40.7824C290.138 40.5242 289.697 40.395 289.14 40.395C288.77 40.395 288.43 40.4743 288.118 40.6328C287.807 40.7854 287.54 41.0143 287.317 41.3195C287.094 41.6247 286.921 41.9975 286.798 42.4377C286.675 42.8779 286.613 43.3856 286.613 43.9608V44.3306C286.613 44.7826 286.675 45.2081 286.798 45.6073C286.927 46.0005 287.112 46.3468 287.352 46.6462C287.599 46.9455 287.895 47.1803 288.242 47.3506C288.594 47.5208 288.993 47.6059 289.439 47.6059C290.014 47.6059 290.502 47.4885 290.901 47.2537C291.3 47.0189 291.649 46.7049 291.948 46.3116L292.934 47.0952C292.729 47.4063 292.468 47.7027 292.151 47.9845C291.834 48.2662 291.444 48.4951 290.98 48.6712C290.522 48.8473 289.979 48.9354 289.351 48.9354ZM300.577 47.1304V42.2264C300.577 41.8507 300.5 41.525 300.348 41.2491C300.201 40.9673 299.978 40.7502 299.679 40.5976C299.379 40.4449 299.01 40.3686 298.569 40.3686C298.158 40.3686 297.797 40.4391 297.486 40.5799C297.181 40.7208 296.94 40.9057 296.764 41.1346C296.594 41.3635 296.509 41.6101 296.509 41.8742H294.88C294.88 41.5338 294.968 41.1963 295.144 40.8617C295.32 40.5271 295.573 40.2248 295.902 39.9548C296.236 39.679 296.635 39.4618 297.099 39.3033C297.569 39.1389 298.091 39.0568 298.666 39.0568C299.359 39.0568 299.969 39.1742 300.497 39.409C301.032 39.6437 301.448 39.9988 301.748 40.4743C302.053 40.9439 302.206 41.5338 302.206 42.244V46.6814C302.206 46.9984 302.232 47.3359 302.285 47.6939C302.343 48.052 302.429 48.3601 302.54 48.6184V48.7593H300.841C300.759 48.5714 300.694 48.322 300.647 48.0109C300.6 47.6939 300.577 47.4004 300.577 47.1304ZM300.858 42.9836L300.876 44.1281H299.23C298.766 44.1281 298.352 44.1663 297.988 44.2426C297.624 44.313 297.319 44.4216 297.073 44.5684C296.826 44.7151 296.638 44.9 296.509 45.123C296.38 45.3402 296.315 45.5955 296.315 45.889C296.315 46.1884 296.383 46.4613 296.518 46.7078C296.653 46.9544 296.855 47.151 297.125 47.2977C297.401 47.4386 297.739 47.509 298.138 47.509C298.637 47.509 299.077 47.4034 299.459 47.1921C299.84 46.9808 300.142 46.7225 300.365 46.4173C300.594 46.1121 300.718 45.8156 300.735 45.528L301.431 46.3116C301.39 46.5582 301.278 46.8311 301.096 47.1304C300.914 47.4298 300.671 47.7174 300.365 47.9933C300.066 48.2633 299.708 48.4893 299.291 48.6712C298.88 48.8473 298.417 48.9354 297.9 48.9354C297.255 48.9354 296.688 48.8092 296.201 48.5568C295.72 48.3044 295.344 47.9669 295.074 47.5443C294.81 47.1158 294.678 46.6374 294.678 46.1091C294.678 45.5985 294.778 45.1494 294.977 44.762C295.177 44.3688 295.464 44.043 295.84 43.7848C296.216 43.5206 296.668 43.3211 297.196 43.1861C297.724 43.0511 298.314 42.9836 298.966 42.9836H300.858ZM306.388 41.1258V48.7593H304.75V39.2329H306.3L306.388 41.1258ZM306.053 43.6351L305.296 43.6087C305.302 42.9571 305.387 42.3555 305.551 41.8038C305.716 41.2461 305.959 40.7619 306.282 40.351C306.605 39.9402 307.007 39.6232 307.488 39.4001C307.97 39.1712 308.527 39.0568 309.161 39.0568C309.607 39.0568 310.018 39.1213 310.394 39.2505C310.769 39.3737 311.095 39.5704 311.371 39.8404C311.647 40.1104 311.861 40.4567 312.014 40.8793C312.166 41.3019 312.243 41.8126 312.243 42.4113V48.7593H310.614V42.4905C310.614 41.9916 310.529 41.5925 310.358 41.2931C310.194 40.9938 309.959 40.7766 309.654 40.6416C309.349 40.5007 308.991 40.4303 308.58 40.4303C308.099 40.4303 307.697 40.5154 307.374 40.6856C307.051 40.8558 306.793 41.0906 306.599 41.39C306.405 41.6893 306.264 42.0327 306.176 42.4201C306.094 42.8016 306.053 43.2066 306.053 43.6351ZM312.225 42.737L311.133 43.0716C311.139 42.5492 311.224 42.0473 311.389 41.566C311.559 41.0847 311.802 40.6562 312.119 40.2806C312.442 39.9049 312.838 39.6085 313.308 39.3913C313.777 39.1683 314.315 39.0568 314.919 39.0568C315.43 39.0568 315.882 39.1243 316.275 39.2593C316.674 39.3943 317.009 39.6026 317.279 39.8844C317.555 40.1603 317.763 40.5154 317.904 40.9497C318.045 41.3841 318.115 41.9006 318.115 42.4993V48.7593H316.478V42.4817C316.478 41.9476 316.392 41.5338 316.222 41.2403C316.058 40.9409 315.823 40.7326 315.518 40.6152C315.218 40.4919 314.86 40.4303 314.444 40.4303C314.086 40.4303 313.769 40.4919 313.493 40.6152C313.217 40.7384 312.985 40.9086 312.797 41.1258C312.609 41.3371 312.466 41.5807 312.366 41.8566C312.272 42.1325 312.225 42.4259 312.225 42.737ZM333.276 47.421V48.7593H324.886V47.5883L329.085 42.9131C329.602 42.3379 330.001 41.8507 330.283 41.4516C330.57 41.0466 330.77 40.6856 330.882 40.3686C330.999 40.0458 331.058 39.7171 331.058 39.3825C331.058 38.9599 330.97 38.5784 330.794 38.238C330.623 37.8917 330.371 37.6158 330.036 37.4103C329.702 37.2049 329.297 37.1022 328.821 37.1022C328.252 37.1022 327.777 37.2137 327.395 37.4368C327.019 37.6539 326.738 37.9592 326.55 38.3524C326.362 38.7457 326.268 39.1976 326.268 39.7083H324.639C324.639 38.9863 324.798 38.326 325.115 37.7273C325.432 37.1286 325.901 36.6532 326.523 36.301C327.146 35.9429 327.912 35.7639 328.821 35.7639C329.631 35.7639 330.324 35.9077 330.899 36.1953C331.474 36.4771 331.915 36.8762 332.22 37.3927C332.531 37.9034 332.686 38.5021 332.686 39.1888C332.686 39.5645 332.622 39.946 332.493 40.3334C332.37 40.7149 332.196 41.0965 331.973 41.478C331.756 41.8595 331.501 42.2352 331.207 42.605C330.92 42.9747 330.612 43.3387 330.283 43.6967L326.849 47.421H333.276ZM337.08 42.6578L335.777 42.3232L336.42 35.94H342.996V37.4456H337.802L337.414 40.9321C337.649 40.7971 337.946 40.6709 338.304 40.5535C338.668 40.4361 339.084 40.3774 339.554 40.3774C340.147 40.3774 340.678 40.4802 341.148 40.6856C341.617 40.8852 342.016 41.1728 342.345 41.5484C342.68 41.9241 342.935 42.376 343.111 42.9043C343.287 43.4326 343.375 44.0225 343.375 44.674C343.375 45.2903 343.29 45.8567 343.12 46.3733C342.955 46.8898 342.706 47.3417 342.371 47.7291C342.037 48.1107 341.614 48.4071 341.104 48.6184C340.599 48.8297 340.003 48.9354 339.316 48.9354C338.8 48.9354 338.31 48.8649 337.846 48.724C337.388 48.5773 336.977 48.3572 336.613 48.0637C336.255 47.7644 335.962 47.3946 335.733 46.9544C335.51 46.5083 335.369 45.9859 335.31 45.3872H336.86C336.93 45.8685 337.071 46.2735 337.282 46.6022C337.494 46.9309 337.77 47.1803 338.11 47.3506C338.456 47.5149 338.858 47.5971 339.316 47.5971C339.704 47.5971 340.047 47.5296 340.346 47.3946C340.646 47.2596 340.898 47.0659 341.104 46.8135C341.309 46.5611 341.465 46.2559 341.57 45.8978C341.682 45.5398 341.737 45.1377 341.737 44.6916C341.737 44.2866 341.682 43.911 341.57 43.5646C341.459 43.2183 341.291 42.9161 341.068 42.6578C340.851 42.3995 340.584 42.2 340.267 42.0591C339.95 41.9123 339.586 41.839 339.175 41.839C338.629 41.839 338.216 41.9123 337.934 42.0591C337.658 42.2058 337.373 42.4054 337.08 42.6578Z" fill="#697077"/>
<defs>
<clipPath id="clip0_9_4121">
<rect width="50.2306" height="50.2306" fill="white" transform="translate(0.607422 0.91111)"/>
</clipPath>
</defs>
</svg>
